<svg xmlns="http://www.w3.org/2000/svg" version="1.1" viewBox="-5.0 -10.0 110.0 135.0">
 <path d="m50 12.293c9.043 0 17.23 3.668 23.152 9.5898 0.53125 0.53125 1.0391 1.0781 1.5352 1.6445 7.3633-2.6406 12.91-0.75 16.602 3.2188 3.1445 3.3789 4.8672 8.2891 5.1602 13.137 0.29297 4.8672-0.85938 9.7422-3.457 13.008-2.6719 3.3633-6.7773 5.0625-12.277 3.4961-0.31641 0.85156-0.66406 1.6875-1.0469 2.5039-1.3008 2.7734-2.9727 5.3398-4.9609 7.6211-0.03125 0.046875-0.070312 0.085937-0.10938 0.12109l-0.003906 0.007813-0.023438 0.027344c-0.91406 1.0391-1.8945 2.0234-2.9336 2.9375 0.16797 1.082 0.25 2.1055 0.25 3.0703 0 4.1797-1.4688 7.3945-4.0078 9.7773-2.4609 2.3086-5.9023 3.7812-9.957 4.5586-2.4492 0.46875-5.1172 0.69141-7.9219 0.69141-2.8008 0-5.4727-0.21875-7.9219-0.6875-4.0547-0.77734-7.5-2.25-9.9609-4.5586-2.543-2.3828-4.0117-5.6016-4.0117-9.7812 0-0.96484 0.085937-1.9883 0.25-3.0703-1.0547-0.92969-2.0508-1.9297-2.9805-2.9883l-0.023438-0.027344-0.019531-0.027344-0.023437-0.027344c-1.9922-2.2852-3.6719-4.8555-4.9766-7.6406-0.38281-0.81641-0.73047-1.6523-1.0469-2.5039-5.5039 1.5664-9.6055-0.12891-12.281-3.4961-2.5977-3.2656-3.75-8.1406-3.457-13.008 0.29297-4.8477 2.0156-9.7578 5.1602-13.137 3.6914-3.9688 9.2422-5.8555 16.602-3.2188 0.49609-0.56641 1.0039-1.1172 1.5352-1.6445 5.9258-5.9258 14.113-9.5898 23.152-9.5898zm5.5117 35.855c-0.82812 0-1.5-0.67188-1.5-1.5 0-0.82813 0.67188-1.5 1.5-1.5h5.1406l0.19922-0.003907 0.19922 0.003907h5.1367c0.82812 0 1.5 0.67187 1.5 1.5 0 0.82812-0.67188 1.5-1.5 1.5h-0.65625c0.30469 0.65234 0.47266 1.3789 0.47266 2.1445 0 1.4141-0.57812 2.7031-1.5078 3.6328-0.9375 0.9375-2.2227 1.5117-3.6406 1.5117-1.4219 0-2.7109-0.57422-3.6406-1.5078l-0.089844-0.097657c-0.87891-0.92188-1.418-2.1719-1.418-3.543 0-0.76562 0.16797-1.4922 0.46875-2.1445h-0.65625zm5.4609 0h-0.25c-0.54688 0.03125-1.0391 0.26562-1.3984 0.62109-0.38281 0.38672-0.62891 0.92578-0.62891 1.5195 0 0.5625 0.21484 1.0781 0.57031 1.4609l0.058594 0.058594c0.38672 0.38672 0.92578 0.62891 1.5195 0.62891s1.1328-0.23828 1.5195-0.62891c0.38281-0.38672 0.62891-0.92578 0.62891-1.5195s-0.23828-1.1328-0.62891-1.5195c-0.35938-0.35938-0.84766-0.58984-1.3945-0.62109zm-27.148 0c-0.82812 0-1.5-0.67188-1.5-1.5 0-0.82813 0.67188-1.5 1.5-1.5h5.1406l0.19922-0.003907 0.19922 0.003907h5.1367c0.82812 0 1.5 0.67187 1.5 1.5 0 0.82812-0.67188 1.5-1.5 1.5h-0.65625c0.30469 0.65234 0.47266 1.3789 0.47266 2.1445 0 1.4141-0.57812 2.7031-1.5078 3.6328-0.9375 0.9375-2.2227 1.5117-3.6406 1.5117-1.4219 0-2.7109-0.57422-3.6406-1.5078-0.92969-0.92969-1.5078-2.2188-1.5078-3.6406 0-0.76562 0.16797-1.4922 0.46875-2.1445h-0.65625zm5.4609 0h-0.25c-0.54688 0.03125-1.0391 0.26562-1.3945 0.62109-0.38281 0.38672-0.62891 0.92578-0.62891 1.5195s0.23828 1.1328 0.62891 1.5195c0.38672 0.38672 0.92578 0.62891 1.5195 0.62891 0.59766 0 1.1328-0.23828 1.5195-0.62891 0.38281-0.38672 0.62891-0.92578 0.62891-1.5195 0-0.5625-0.21484-1.0781-0.56641-1.457l-0.0625-0.058593c-0.35938-0.35938-0.85156-0.59375-1.3945-0.62891zm-19.66-15.352c-2.2422-0.51172-3.9102 0.10547-5.0352 1.3047-1.2578 1.3477-1.9336 3.3945-2.0391 5.457v0.011718c-0.097656 2.0508 0.36719 4.0625 1.3867 5.3672 0.74219 0.94922 1.8594 1.5 3.3438 1.3086-0.015625-0.40234-0.019531-0.80859-0.019531-1.2109 0-4.3242 0.83984-8.457 2.3633-12.238zm-2.0938 16.441c-2.582 0.32031-4.5703-0.70312-5.9492-2.4609-1.4727-1.8828-2.1523-4.6289-2.0195-7.3438v-0.027344c0.13672-2.7188 1.082-5.4648 2.8477-7.3516 1.9453-2.0703 4.7812-3.1094 8.4844-2.0312 0.71875-1.3945 1.5352-2.7266 2.4414-3.9961-5.5391-1.668-9.6797-0.20703-12.434 2.7539-2.6523 2.8516-4.1094 7.0664-4.3633 11.273-0.25391 4.1797 0.68359 8.2969 2.8125 10.973 1.9219 2.418 4.9297 3.6289 9.0312 2.5078-0.37891-1.3984-0.66406-2.832-0.85156-4.2969zm61.582-19.211c3.7031-1.0781 6.5391-0.039063 8.4805 2.0352 1.7656 1.8789 2.7109 4.6289 2.8516 7.3477v0.027344c0.13281 2.7188-0.54687 5.4648-2.0195 7.3438-1.375 1.7539-3.3633 2.7812-5.9453 2.4609-0.1875 1.4648-0.47656 2.9023-0.85156 4.3008 4.1016 1.1211 7.1055-0.089844 9.0273-2.5078 2.1289-2.6758 3.0625-6.7891 2.8125-10.973-0.25391-4.207-1.7109-8.4258-4.3633-11.273-2.7539-2.957-6.8906-4.4219-12.434-2.7539 0.90625 1.2695 1.7227 2.6055 2.4414 3.9961zm3.6133 16.219c1.4844 0.1875 2.6016-0.35547 3.3438-1.3086 1.0234-1.3047 1.4844-3.3164 1.3867-5.3672v-0.011718c-0.10547-2.0625-0.78125-4.1094-2.0391-5.4492-1.1211-1.2031-2.793-1.8242-5.0352-1.3125 1.5234 3.7812 2.3633 7.9102 2.3633 12.238 0 0.40625-0.007813 0.80859-0.019532 1.2109zm-40.43 35.406c-0.82031-0.089844-1.4141-0.83203-1.3242-1.6523s0.83203-1.4141 1.6523-1.3242c1.6484 0.18359 2.9688 0.066407 3.9961-0.30469 0.92969-0.33594 1.6406-0.89844 2.1562-1.6445 0.46875-0.67969 1.4023-0.84766 2.0781-0.38281 0.15625 0.10938 0.28516 0.23828 0.38672 0.39062 0.53516 0.78125 1.2812 1.3398 2.2305 1.6602 1.0508 0.35938 2.3594 0.45312 3.918 0.28125 0.82031-0.089843 1.5625 0.50391 1.6523 1.3242 0.089843 0.82031-0.50391 1.5625-1.3242 1.6523-2.0117 0.22266-3.7578 0.082031-5.2188-0.42188-0.94922-0.32812-1.7812-0.80078-2.4922-1.4219-0.67187 0.58203-1.457 1.043-2.3711 1.375-1.4531 0.52344-3.2227 0.70312-5.3359 0.46875zm-17.934-21.531c-0.34766-4.8242-0.097656-8.9883 0.74219-12.395 0.75-3.043 1.9805-5.5039 3.6758-7.3242 1.7539-1.8828 3.9805-3.0586 6.668-3.4648 2.0352-0.30469 4.332-0.16016 6.8867 0.47266 2.9531 0.73047 5.543 1.0547 8.0039 1.0391 2.4531-0.019531 4.8164-0.38281 7.332-1.0352 2.582-0.67187 4.9062-0.83594 6.9609-0.52344 2.6172 0.39453 4.8047 1.5469 6.5352 3.3789 1.6719 1.7656 2.8945 4.1602 3.6641 7.1172 0.90234 3.4727 1.1836 7.7578 0.82031 12.73 0.47656-0.80859 0.91797-1.6406 1.3164-2.4961 1.7852-3.8125 2.7852-8.082 2.7852-12.59 0-8.2148-3.3281-15.652-8.7109-21.035-5.3828-5.3828-12.82-8.7109-21.035-8.7109-8.2148 0-15.652 3.3281-21.035 8.7109-5.3828 5.3828-8.7109 12.82-8.7109 21.035 0 4.5078 1 8.7734 2.7852 12.59 0.39844 0.85547 0.83984 1.6875 1.3164 2.5zm47.742 4.8203c1-6.8672 0.92969-12.555-0.17188-16.801-0.64062-2.4609-1.625-4.418-2.9492-5.8203-1.2617-1.332-2.8633-2.1719-4.8047-2.4648-1.668-0.25391-3.5938-0.10938-5.7617 0.45703-2.7422 0.71094-5.3438 1.1094-8.0742 1.1289-2.7188 0.019532-5.543-0.33594-8.7305-1.1211-2.1523-0.53125-4.0664-0.66016-5.7227-0.41016-1.9922 0.30078-3.6367 1.1641-4.9219 2.5391-1.3438 1.4414-2.3359 3.4609-2.9609 6-1.0391 4.2031-1.0781 9.7773-0.10156 16.5 0.94141 1.043 1.957 2.0234 3.0391 2.9258 0.40234 0.33984 0.61328 0.87891 0.51172 1.4297-0.22656 1.1953-0.33984 2.3203-0.33984 3.3711 0 3.2812 1.1211 5.7812 3.0586 7.5977 2.0195 1.8945 4.957 3.1211 8.4727 3.7969 2.2383 0.42969 4.7188 0.62891 7.3555 0.62891 2.6406 0 5.1211-0.19922 7.3594-0.62891 3.5156-0.67187 6.4492-1.9062 8.4688-3.7969 1.9375-1.8164 3.0586-4.3125 3.0586-7.5977 0-1.0469-0.10938-2.1641-0.33594-3.3555-0.10547-0.52344 0.070312-1.082 0.50781-1.4492 1.082-0.90234 2.1016-1.8828 3.043-2.9297zm-26.789 3.9062c0.30859 0.87109 0.92578 1.5234 1.6992 1.957 0.85938 0.47656 1.9141 0.71875 2.9727 0.72266 1.0586 0 2.1133-0.23828 2.9844-0.71875 0.78125-0.42969 1.4062-1.0781 1.7227-1.9531-1.5547 0.55078-3.1133 0.82812-4.6758 0.82812-1.5703 0-3.1367-0.27734-4.7031-0.83594zm0.25 4.5664c-2.3516-1.3047-3.9102-3.6992-3.3438-7.1562 0.027344-0.15625 0.078125-0.31641 0.16016-0.46094 0.38672-0.73047 1.293-1.0039 2.0234-0.61328 1.8828 1.0039 3.7578 1.5078 5.6211 1.5078 1.8438 0 3.6992-0.49609 5.5547-1.4805 0.15625-0.09375 0.33203-0.15625 0.52344-0.1875 0.81641-0.12891 1.582 0.42969 1.7109 1.2422 0.55078 3.4727-1.0273 5.8672-3.3945 7.1719-1.3125 0.71875-2.875 1.0781-4.4258 1.0781-1.5508-0.003906-3.1133-0.36719-4.4258-1.0977z"/>
<text x="0.0" y="117.5" font-size="5.0" font-weight="bold" font-family="Arbeit Regular, Helvetica, Arial-Unicode, Arial, Sans-serif" fill="#000000">Created by Riyuv</text><text x="0.0" y="122.5" font-size="5.0" font-weight="bold" font-family="Arbeit Regular, Helvetica, Arial-Unicode, Arial, Sans-serif" fill="#000000">from Noun Project</text></svg>